<svg xmlns:dc="http://purl.org/dc/elements/1.1/" xmlns:cc="http://creativecommons.org/ns#" xmlns:rdf="http://www.w3.org/1999/02/22-rdf-syntax-ns#" xmlns:svg="http://www.w3.org/2000/svg" xmlns="http://www.w3.org/2000/svg" id="svg8" version="1.1" viewBox="0 0 100 100" height="50px" width="50px">
  <defs id="defs2">
    <marker id="Arrow2Lend" refX="0.0" refY="0.0" orient="auto" overflow="visible">
      <path transform="scale(1.1) rotate(180) translate(1,0)" d="M8.7185878 4.0337352L-2.2072895 0.016013256 8.7185884-4.0017078C6.97309-1.6296469 6.9831476 1.6157441 8.7185878 4.0337352z" id="path4557" style="fill-opacity:1;fill-rule:evenodd;fill:#f00;stroke-linejoin:round;stroke-opacity:1;stroke-width:0.625;stroke:#f00"/>
    </marker>
    <marker id="Arrow1Lend" refX="0.0" refY="0.0" orient="auto" overflow="visible">
      <path transform="scale(0.8) rotate(180) translate(12.5,0)" d="M0 0L5-5 -12.5 0 5 5 0 0z" id="path4539" style="fill-opacity:1;fill-rule:evenodd;fill:#000;stroke-opacity:1;stroke-width:1pt;stroke:#000"/>
    </marker>
    <marker id="marker5370" refX="0.0" refY="0.0" orient="auto" overflow="visible">
      <path transform="scale(0.8) translate(12.5,0)" d="M0 0L5-5 -12.5 0 5 5 0 0z" id="path5368" style="fill-opacity:1;fill-rule:evenodd;fill:#000;stroke-opacity:1;stroke-width:1pt;stroke:#000"/>
    </marker>
    <marker id="Arrow1Lstart" refX="0.0" refY="0.0" orient="auto" overflow="visible">
      <path transform="scale(0.8) translate(12.5,0)" d="M0 0L5-5 -12.5 0 5 5 0 0z" id="path4536" style="fill-opacity:1;fill-rule:evenodd;fill:#000;stroke-opacity:1;stroke-width:1pt;stroke:#000"/>
    </marker>
  </defs>
  <metadata id="metadata5">
    <rdf:RDF>
      <cc:Work rdf:about="">
        <dc:format>
          image/svg+xml
        </dc:format>
        <dc:type rdf:resource="http://purl.org/dc/dcmitype/StillImage"/>
        <dc:title/>
      </cc:Work>
    </rdf:RDF>
  </metadata>
  <g transform="translate(0,-197)" id="layer1">
    <path id="path5354" d="M13.435239 279.99691 2.7794681 294.40951" style="fill:none;marker-end:url(#Arrow2Lend);opacity:1;stroke-dasharray:none;stroke-dashoffset:0;stroke-linecap:butt;stroke-linejoin:miter;stroke-miterlimit:4;stroke-opacity:1;stroke-width:2;stroke:#f00;vector-effect:none"/>
    <path id="path5778" d="m2.779468 294.40951v0" style="fill:none;opacity:1;stroke-dasharray:none;stroke-dashoffset:0;stroke-linecap:butt;stroke-linejoin:miter;stroke-miterlimit:4;stroke-opacity:1;stroke-width:4;stroke:#000;vector-effect:none"/>
    <path id="path5780" d="M99.785712 246.72916 38.55357 246.35119 2.779468 294.40951" style="fill:none;opacity:1;stroke-dasharray:none;stroke-dashoffset:0;stroke-linecap:butt;stroke-linejoin:miter;stroke-miterlimit:4;stroke-opacity:1;stroke-width:3;stroke:#f00;vector-effect:none"/>
  </g>
</svg>
